<svg width="45" height="47" viewBox="0 0 45 47" fill="none" xmlns="http://www.w3.org/2000/svg">
<path d="M16.75 38.5834C6.33335 41.7084 6.33335 33.3751 2.16669 32.3334L16.75 38.5834ZM31.3334 44.8334V36.7709C31.4115 35.7775 31.2773 34.7788 30.9396 33.8413C30.602 32.9038 30.0686 32.0489 29.375 31.3334C35.9167 30.6042 42.7917 28.1251 42.7917 16.7501C42.7911 13.8414 41.6723 11.0442 39.6667 8.93757C40.6164 6.3928 40.5492 3.57997 39.4792 1.08341C39.4792 1.08341 37.0209 0.35424 31.3334 4.16674C26.5584 2.87262 21.525 2.87262 16.75 4.16674C11.0625 0.35424 8.60419 1.08341 8.60419 1.08341C7.53414 3.57997 7.46699 6.3928 8.41669 8.93757C6.39612 11.0599 5.27611 13.8823 5.29169 16.8126C5.29169 28.1042 12.1667 30.5834 18.7084 31.3959C18.0229 32.1042 17.4943 32.9488 17.1569 33.8749C16.8195 34.801 16.6809 35.7877 16.75 36.7709V44.8334" fill="white"/>
<path d="M16.75 38.5834C6.33335 41.7084 6.33335 33.3751 2.16669 32.3334M31.3334 44.8334V36.7709C31.4115 35.7775 31.2773 34.7788 30.9396 33.8413C30.602 32.9038 30.0686 32.0489 29.375 31.3334C35.9167 30.6042 42.7917 28.1251 42.7917 16.7501C42.7912 13.8414 41.6723 11.0442 39.6667 8.93757C40.6164 6.3928 40.5492 3.57997 39.4792 1.08341C39.4792 1.08341 37.0209 0.35424 31.3334 4.16674C26.5584 2.87262 21.525 2.87262 16.75 4.16674C11.0625 0.35424 8.60419 1.08341 8.60419 1.08341C7.53414 3.57997 7.46699 6.3928 8.41669 8.93757C6.39612 11.0599 5.27611 13.8823 5.29169 16.8126C5.29169 28.1042 12.1667 30.5834 18.7084 31.3959C18.0229 32.1042 17.4943 32.9488 17.1569 33.8749C16.8195 34.801 16.6809 35.7877 16.75 36.7709V44.8334" stroke="white" stroke-width="3" stroke-linecap="round" stroke-linejoin="round"/>
</svg>
