<svg width="50" height="50" viewBox="0 0 50 50" fill="none" xmlns="http://www.w3.org/2000/svg">
<path d="M30.2083 20.8334C28.4791 20.8334 27.0833 19.4376 27.0833 17.7084V7.29175C27.0833 5.56258 28.4791 4.16675 30.2083 4.16675C31.9375 4.16675 33.3333 5.56258 33.3333 7.29175V17.7084C33.3333 19.4376 31.9375 20.8334 30.2083 20.8334Z" fill="white" stroke="white" stroke-width="2" stroke-linecap="round" stroke-linejoin="round"/>
<path d="M42.7083 20.8333H39.5833V17.7083C39.5833 15.9791 40.9791 14.5833 42.7083 14.5833C44.4375 14.5833 45.8333 15.9791 45.8333 17.7083C45.8333 19.4374 44.4375 20.8333 42.7083 20.8333Z" fill="white" stroke="white" stroke-width="2" stroke-linecap="round" stroke-linejoin="round"/>
<path d="M19.7917 29.1667C21.5209 29.1667 22.9167 30.5626 22.9167 32.2917V42.7084C22.9167 44.4376 21.5209 45.8334 19.7917 45.8334C18.0625 45.8334 16.6667 44.4376 16.6667 42.7084V32.2917C16.6667 30.5626 18.0625 29.1667 19.7917 29.1667Z" fill="white" stroke="white" stroke-width="2" stroke-linecap="round" stroke-linejoin="round"/>
<path d="M7.29166 29.1667H10.4167V32.2917C10.4167 34.0209 9.02082 35.4167 7.29166 35.4167C5.56249 35.4167 4.16666 34.0209 4.16666 32.2917C4.16666 30.5626 5.56249 29.1667 7.29166 29.1667Z" fill="white" stroke="white" stroke-width="2" stroke-linecap="round" stroke-linejoin="round"/>
<path d="M29.1667 30.2083C29.1667 28.4791 30.5625 27.0833 32.2917 27.0833H42.7084C44.4375 27.0833 45.8334 28.4791 45.8334 30.2083C45.8334 31.9374 44.4375 33.3333 42.7084 33.3333H32.2917C30.5625 33.3333 29.1667 31.9374 29.1667 30.2083Z" fill="white" stroke="white" stroke-width="2" stroke-linecap="round" stroke-linejoin="round"/>
<path d="M32.2917 39.5833H29.1667V42.7083C29.1667 44.4374 30.5625 45.8333 32.2917 45.8333C34.0209 45.8333 35.4167 44.4374 35.4167 42.7083C35.4167 40.9791 34.0209 39.5833 32.2917 39.5833Z" fill="white" stroke="white" stroke-width="2" stroke-linecap="round" stroke-linejoin="round"/>
<path d="M20.8333 19.7917C20.8333 18.0626 19.4375 16.6667 17.7083 16.6667H7.29166C5.56249 16.6667 4.16666 18.0626 4.16666 19.7917C4.16666 21.5209 5.56249 22.9167 7.29166 22.9167H17.7083C19.4375 22.9167 20.8333 21.5209 20.8333 19.7917Z" fill="white" stroke="white" stroke-width="2" stroke-linecap="round" stroke-linejoin="round"/>
<path d="M17.7083 10.4167H20.8333V7.29175C20.8333 5.56258 19.4375 4.16675 17.7083 4.16675C15.9791 4.16675 14.5833 5.56258 14.5833 7.29175C14.5833 9.02091 15.9791 10.4167 17.7083 10.4167Z" fill="white" stroke="white" stroke-width="2" stroke-linecap="round" stroke-linejoin="round"/>
</svg>
